<svg width="512" height="512" viewBox="0 0 512 512" fill="none" xmlns="http://www.w3.org/2000/svg">
  <rect width="512" height="512" rx="36" fill="#F6FBF7"/>
  <rect x="48" y="48" width="416" height="416" rx="28" fill="white" stroke="#D8E7DF" stroke-width="16"/>
  <rect x="88" y="88" width="112" height="112" rx="16" fill="#1F2A37"/>
  <rect x="312" y="88" width="112" height="112" rx="16" fill="#1F2A37"/>
  <rect x="88" y="312" width="112" height="112" rx="16" fill="#1F2A37"/>
  <rect x="120" y="120" width="48" height="48" rx="8" fill="#F6FBF7"/>
  <rect x="344" y="120" width="48" height="48" rx="8" fill="#F6FBF7"/>
  <rect x="120" y="344" width="48" height="48" rx="8" fill="#F6FBF7"/>
  <path d="M256 108V228" stroke="#0F8B8D" stroke-width="18" stroke-linecap="round"/>
  <path d="M228 256H284" stroke="#EF6C3F" stroke-width="18" stroke-linecap="round"/>
  <path d="M240 284H360" stroke="#1F2A37" stroke-width="18" stroke-linecap="round"/>
  <path d="M256 320H392" stroke="#1F2A37" stroke-width="18" stroke-linecap="round"/>
  <path d="M240 356H344" stroke="#0F8B8D" stroke-width="18" stroke-linecap="round"/>
  <path d="M240 392H392" stroke="#EF6C3F" stroke-width="18" stroke-linecap="round"/>
  <text x="256" y="468" text-anchor="middle" font-family="Arial, sans-serif" font-size="28" font-weight="700" fill="#5F6D7A">Replace with your WeChat QR</text>
</svg>
